# xmcd
#
# Track frame offsets:
#	150
#	18744
#	36385
#	52035
#	73518
#	89285
#	104814
#	122951
#	138717
#	155006
#	172246
#	189122
#	205984
#	221590
#	240219
#
# Disc length: 3399 seconds
#
# Revision: 1
# Processed by: cddbd v1.5.2PL0 Copyright (c) Steve Scherf et al.
# Submitted via: audiograbber 1.83.01
#
DISCID=e60d450f
DTITLE=Various Artist - CDX Volume 547 (June 4, 2012)
DYEAR=2012
DGENRE=Country
TTITLE0=Lady Antebellum - Wanted You More
TTITLE1=Pat Green - All Just To Get To You
TTITLE2=Hank Williams Jr. - That Ain't Good
TTITLE3=Clinton Gregory - She Did
TTITLE4=Steele - Do You Really Have To Go
TTITLE5=Aaron Lewis - Endless Summer
TTITLE6=Kory Brunson Band - Girls Night Out
TTITLE7=Larissa - I Feel Yellow
TTITLE8=Debbie Cochran - It's Never Too Late  
TTITLE9=Reggie Shaw - Someone I Can't Live Without
TTITLE10=Corey Wagar - Take Ya Back  
TTITLE11=Badhorse - Then Again
TTITLE12=Shane Yellowbird - They're All About You
TTITLE13=Denae Gardner - Welcome To America 
TTITLE14=Miss Jeanie - Small Talk
EXTD=
EXTT0=
EXTT1=
EXTT2=
EXTT3=
EXTT4=
EXTT5=
EXTT6=
EXTT7=
EXTT8=
EXTT9=
EXTT10=
EXTT11=
EXTT12=
EXTT13=
EXTT14=
PLAYORDER=
